<?xml version="1.0" encoding="UTF-8"?>
<svg xmlns="http://www.w3.org/2000/svg" width="128" height="128" viewBox="0 0 24 24" fill="none" stroke="currentColor" stroke-width="1.5" stroke-linecap="round" stroke-linejoin="round">
  <path d="M8 3C6.343 3 5 4.343 5 6v2H4a2 2 0 0 0-2 2v2a3 3 0 0 0 3 3h1v3a3 3 0 0 0 3 3h6a3 3 0 0 0 3-3v-3h1a3 3 0 0 0 3-3v-2a2 2 0 0 0-2-2h-1V6c0-1.657-1.343-3-3-3H8z" />
  <path d="M8 9h8" />
  <path d="M7 12c0 .552-.448 1-1 1s-1-.448-1-1 .448-1 1-1 1 .448 1 1z" />
  <path d="M18 12c0 .552.448 1 1 1s1-.448 1-1-.448-1-1-1-1 .448-1 1z" />
</svg>
